<?xml version="1.0" encoding="utf-8"?>
<!-- Generator: Adobe Illustrator 23.1.0, SVG Export Plug-In . SVG Version: 6.00 Build 0)  -->
<svg version="1.1" id="Layer_1" xmlns="http://www.w3.org/2000/svg" xmlns:xlink="http://www.w3.org/1999/xlink" x="0px" y="0px"
	 viewBox="0 0 50 50" style="enable-background:new 0 0 50 50;" xml:space="preserve">
<style type="text/css">
	.st0{fill:#C1C3C3;}
	.st1{fill:#231F20;}
	.st2{fill:none;stroke:#231F20;stroke-width:0.75;stroke-linecap:round;stroke-linejoin:round;stroke-miterlimit:10;}
	.st3{fill:none;stroke:#006838;stroke-width:0.75;stroke-linecap:round;stroke-linejoin:round;stroke-miterlimit:10;}
	.st4{fill:none;stroke:#231F20;stroke-width:0.75;stroke-linejoin:round;stroke-miterlimit:10;}
	.st5{fill:#91D4D1;stroke:#91D3CF;stroke-width:0.75;stroke-linecap:round;stroke-linejoin:round;stroke-miterlimit:10;}
	.st6{fill:#00A651;stroke:#231F20;stroke-width:0.75;stroke-linecap:round;stroke-linejoin:round;stroke-miterlimit:10;}
	.st7{fill:#EEF1B7;stroke:#EDF0B6;stroke-width:0.75;stroke-linecap:round;stroke-linejoin:round;stroke-miterlimit:10;}
	.st8{fill:#43A347;stroke:#43A347;stroke-width:0.75;stroke-linecap:round;stroke-linejoin:round;stroke-miterlimit:10;}
	.st9{fill:#E6EEB7;stroke:#231F20;stroke-width:0.75;stroke-miterlimit:10;}
	.st10{fill:#F7941D;}
	.st11{fill:none;stroke:#231F20;stroke-width:0.75;stroke-linecap:round;stroke-miterlimit:10;}
</style>
<g>
	<path class="st0" d="M45,44.37H5V6.79h40V44.37z M5.24,44.13h39.52V7.03H5.24V44.13z"/>
	<rect x="5.12" y="42.92" class="st0" width="39.76" height="0.24"/>
	<rect x="5.12" y="41.72" class="st0" width="39.76" height="0.24"/>
	<rect x="5.12" y="40.51" class="st0" width="39.76" height="0.24"/>
	<rect x="5.12" y="39.31" class="st0" width="39.76" height="0.24"/>
	<rect x="5.12" y="38.1" class="st0" width="39.76" height="0.24"/>
	<rect x="5.12" y="36.9" class="st0" width="39.76" height="0.24"/>
	<rect x="5.12" y="35.69" class="st0" width="39.76" height="0.24"/>
	<rect x="5.12" y="34.49" class="st0" width="39.76" height="0.24"/>
	<rect x="5.12" y="33.29" class="st0" width="39.76" height="0.24"/>
	<rect x="5.12" y="32.08" class="st0" width="39.76" height="0.24"/>
	<rect x="5.12" y="30.88" class="st0" width="39.76" height="0.24"/>
	<rect x="5.12" y="29.67" class="st0" width="39.76" height="0.24"/>
	<rect x="5.12" y="28.47" class="st0" width="39.76" height="0.24"/>
	<rect x="5.12" y="27.26" class="st0" width="39.76" height="0.24"/>
	<rect x="5.12" y="26.06" class="st0" width="39.76" height="0.24"/>
	<rect x="5.12" y="24.85" class="st0" width="39.76" height="0.24"/>
	<rect x="5.12" y="23.65" class="st0" width="39.76" height="0.24"/>
	<rect x="5.12" y="22.44" class="st0" width="39.76" height="0.24"/>
	<rect x="5.12" y="21.24" class="st0" width="39.76" height="0.24"/>
	<rect x="5.12" y="20.04" class="st0" width="39.76" height="0.24"/>
	<rect x="5.12" y="18.83" class="st0" width="39.76" height="0.24"/>
	<rect x="5.12" y="17.63" class="st0" width="39.76" height="0.24"/>
	<rect x="5.12" y="16.42" class="st0" width="39.76" height="0.24"/>
	<rect x="5.12" y="15.22" class="st0" width="39.76" height="0.24"/>
	<rect x="5.12" y="14.01" class="st0" width="39.76" height="0.24"/>
	<rect x="5.12" y="12.81" class="st0" width="39.76" height="0.24"/>
	<rect x="5.12" y="11.6" class="st0" width="39.76" height="0.24"/>
	<rect x="5.12" y="10.4" class="st0" width="39.76" height="0.24"/>
	<rect x="5.12" y="9.2" class="st0" width="39.76" height="0.24"/>
	<rect x="5.12" y="7.99" class="st0" width="39.76" height="0.24"/>
	<rect x="43.48" y="6.91" class="st0" width="0.24" height="37.34"/>
	<rect x="42.19" y="6.91" class="st0" width="0.24" height="37.34"/>
	<rect x="40.91" y="6.91" class="st0" width="0.24" height="37.34"/>
	<rect x="39.63" y="6.91" class="st0" width="0.24" height="37.34"/>
	<rect x="38.35" y="6.91" class="st0" width="0.24" height="37.34"/>
	<rect x="37.06" y="6.91" class="st0" width="0.24" height="37.34"/>
	<rect x="35.78" y="6.91" class="st0" width="0.24" height="37.34"/>
	<rect x="34.5" y="6.91" class="st0" width="0.24" height="37.34"/>
	<rect x="33.22" y="6.91" class="st0" width="0.24" height="37.34"/>
	<rect x="31.93" y="6.91" class="st0" width="0.24" height="37.34"/>
	<rect x="30.65" y="6.91" class="st0" width="0.24" height="37.34"/>
	<rect x="29.37" y="6.91" class="st0" width="0.24" height="37.34"/>
	<rect x="28.09" y="6.91" class="st0" width="0.24" height="37.34"/>
	<rect x="26.8" y="6.91" class="st0" width="0.24" height="37.34"/>
	<rect x="25.52" y="6.91" class="st0" width="0.24" height="37.34"/>
	<rect x="24.24" y="6.91" class="st0" width="0.24" height="37.34"/>
	<rect x="22.96" y="6.91" class="st0" width="0.24" height="37.34"/>
	<rect x="21.67" y="6.91" class="st0" width="0.24" height="37.34"/>
	<rect x="20.39" y="6.91" class="st0" width="0.24" height="37.34"/>
	<rect x="19.11" y="6.91" class="st0" width="0.24" height="37.34"/>
	<rect x="17.83" y="6.91" class="st0" width="0.24" height="37.34"/>
	<rect x="16.54" y="6.91" class="st0" width="0.24" height="37.34"/>
	<rect x="15.26" y="6.91" class="st0" width="0.24" height="37.34"/>
	<rect x="13.98" y="6.91" class="st0" width="0.24" height="37.34"/>
	<rect x="12.7" y="6.91" class="st0" width="0.24" height="37.34"/>
	<rect x="11.41" y="6.91" class="st0" width="0.24" height="37.34"/>
	<rect x="10.13" y="6.91" class="st0" width="0.24" height="37.34"/>
	<rect x="8.85" y="6.91" class="st0" width="0.24" height="37.34"/>
	<rect x="7.57" y="6.91" class="st0" width="0.24" height="37.34"/>
	<rect x="6.28" y="6.91" class="st0" width="0.24" height="37.34"/>
</g>
<g>
	<path d="M7.79,33.62h1.23v-1.26H8v-0.5h1.63v1.76h1.24v-1.26H9.8v-0.5h1.68v1.76h0.28v0.48H7.79V33.62z M8.08,34.47h0.61v0.84h2.83
		v0.5H8.08V34.47z"/>
	<path d="M12.11,34.97c0.24-0.05,0.47-0.15,0.68-0.3c0.21-0.15,0.39-0.33,0.54-0.55c0.15-0.22,0.27-0.47,0.36-0.75
		c0.09-0.28,0.13-0.58,0.13-0.89h-1.68v-0.52h2.29v0.41c0,0.4-0.06,0.79-0.17,1.14c-0.12,0.36-0.28,0.68-0.48,0.96
		c-0.2,0.28-0.45,0.51-0.73,0.7c-0.28,0.18-0.59,0.3-0.93,0.36V34.97z M15.1,31.84h0.61v3.98H15.1V31.84z"/>
	<path d="M17.52,33.89c-0.2,0-0.38-0.02-0.53-0.07c-0.15-0.05-0.28-0.12-0.39-0.21c-0.11-0.09-0.19-0.2-0.24-0.33
		c-0.05-0.13-0.08-0.26-0.08-0.42c0-0.15,0.03-0.29,0.08-0.42c0.05-0.13,0.13-0.24,0.24-0.33c0.11-0.09,0.23-0.16,0.39-0.21
		c0.15-0.05,0.33-0.07,0.53-0.07h0.13c0.2,0,0.38,0.02,0.53,0.07c0.15,0.05,0.28,0.12,0.39,0.21c0.1,0.09,0.18,0.2,0.24,0.33
		c0.06,0.13,0.08,0.26,0.08,0.42c0,0.15-0.03,0.29-0.08,0.42c-0.06,0.13-0.13,0.24-0.24,0.33c-0.1,0.09-0.23,0.16-0.39,0.21
		c-0.15,0.05-0.33,0.07-0.53,0.07H17.52z M16.55,35.34c0.21-0.04,0.38-0.15,0.48-0.31c0.11-0.16,0.16-0.36,0.16-0.59v-0.22h0.62
		v0.22c0,0.23,0.04,0.42,0.13,0.58c0.09,0.16,0.21,0.27,0.36,0.32c0.15-0.05,0.26-0.16,0.35-0.32c0.09-0.16,0.14-0.35,0.14-0.58
		v-0.22h0.62v0.22c0,0.23,0.05,0.42,0.16,0.59c0.11,0.17,0.27,0.27,0.48,0.31v0.51c-0.2-0.02-0.38-0.08-0.55-0.19
		c-0.17-0.11-0.3-0.24-0.39-0.39c-0.09,0.14-0.2,0.26-0.35,0.36s-0.3,0.18-0.47,0.22c-0.18-0.04-0.33-0.12-0.48-0.22
		c-0.14-0.11-0.26-0.23-0.34-0.36c-0.09,0.15-0.23,0.29-0.39,0.39c-0.17,0.11-0.35,0.17-0.55,0.19V35.34z M17.69,33.41
		c0.18,0,0.32-0.05,0.43-0.15c0.11-0.1,0.16-0.23,0.16-0.4c0-0.17-0.05-0.3-0.16-0.4c-0.11-0.1-0.25-0.15-0.43-0.15h-0.21
		c-0.18,0-0.32,0.05-0.43,0.15c-0.11,0.1-0.16,0.23-0.16,0.4c0,0.17,0.05,0.3,0.16,0.4c0.11,0.1,0.25,0.15,0.43,0.15H17.69z
		 M19.33,31.84h0.61v2.25h-0.61V31.84z"/>
	<path d="M20.5,33.88h3.97v0.48H20.5V33.88z M20.78,31.86h0.61v1.13h2.83v0.5h-3.43V31.86z M20.78,34.6h0.61v0.7h2.83v0.5h-3.43
		V34.6z"/>
	<path d="M26.09,31.95h2.32v0.51H26.7v2.55h2v0.51h-2.6V31.95z M28.96,31.84h0.61v3.98h-0.61V31.84z"/>
	<path d="M30.15,35.04c0.15-0.04,0.28-0.12,0.4-0.22c0.12-0.1,0.22-0.22,0.3-0.37c0.08-0.14,0.15-0.31,0.19-0.5
		c0.04-0.19,0.07-0.38,0.07-0.6v-0.9h-0.91v-0.51h2.41v0.51h-0.86v0.9c0,0.19,0.02,0.38,0.06,0.55s0.1,0.33,0.17,0.48
		c0.08,0.15,0.17,0.27,0.28,0.38c0.11,0.11,0.24,0.19,0.39,0.26v0.55c-0.12-0.04-0.24-0.09-0.36-0.16
		c-0.12-0.07-0.23-0.15-0.34-0.24c-0.11-0.09-0.21-0.19-0.29-0.3s-0.16-0.22-0.22-0.33c-0.14,0.27-0.32,0.49-0.54,0.67
		c-0.22,0.18-0.47,0.3-0.74,0.37V35.04z M33.06,31.84h0.61v1.42h0.53v0.54h-0.53v2.02h-0.61V31.84z"/>
	<path d="M34.51,32.99c0-0.18,0.03-0.34,0.08-0.48c0.06-0.14,0.14-0.26,0.24-0.35c0.1-0.1,0.23-0.17,0.38-0.22
		c0.15-0.05,0.31-0.08,0.49-0.08c0.18,0,0.34,0.03,0.49,0.08c0.15,0.05,0.27,0.12,0.38,0.22c0.1,0.1,0.18,0.21,0.24,0.35
		c0.06,0.14,0.08,0.3,0.08,0.48v1.49c0,0.18-0.03,0.34-0.08,0.48c-0.06,0.14-0.14,0.26-0.24,0.35c-0.1,0.1-0.23,0.17-0.38,0.22
		c-0.15,0.05-0.31,0.08-0.49,0.08c-0.18,0-0.34-0.03-0.49-0.08c-0.15-0.05-0.27-0.12-0.38-0.22c-0.1-0.1-0.18-0.21-0.24-0.35
		c-0.06-0.14-0.08-0.3-0.08-0.48V32.99z M36.29,32.97c0-0.18-0.05-0.33-0.16-0.44s-0.25-0.17-0.43-0.17c-0.18,0-0.32,0.05-0.42,0.17
		c-0.11,0.11-0.16,0.26-0.16,0.44v1.52c0,0.18,0.05,0.33,0.16,0.44c0.1,0.11,0.25,0.17,0.42,0.17c0.18,0,0.32-0.06,0.43-0.17
		c0.11-0.11,0.16-0.26,0.16-0.44V32.97z M37.43,31.84h0.61v3.98h-0.61V31.84z"/>
	<path d="M38.81,31.95h0.61v3.01h1.89v0.51h-2.49V31.95z M41.66,33.74h-1.22v-0.52h1.22v-1.38h0.61v3.98h-0.61V33.74z"/>
</g>
<g>
	<g>
		<path class="st1" d="M37.6,14.58c0.76,0.06,1.48,0.36,2.1,0.79c0.63,0.42,1.15,0.97,1.61,1.57c0.42,0.62,0.78,1.28,1.01,1.98
			c0.13,0.35,0.19,0.72,0.26,1.07c0.03,0.38,0.08,0.74,0.05,1.11l0,0.01c0,0.02-0.02,0.04-0.04,0.03c-0.02,0-0.03-0.01-0.03-0.02
			c-0.22-0.67-0.46-1.33-0.78-1.95c-0.3-0.63-0.67-1.23-1.08-1.8c-0.82-1.12-1.85-2.14-3.13-2.73c-0.02-0.01-0.03-0.03-0.02-0.05
			C37.56,14.59,37.58,14.58,37.6,14.58L37.6,14.58z"/>
	</g>
	<path class="st2" d="M22.5,22.99c0,0,15.82-20.96,20.19,4.73"/>
	<line class="st2" x1="24.83" y1="23.48" x2="35.68" y2="17.25"/>
	<line class="st2" x1="26.47" y1="27.73" x2="38.44" y2="20.87"/>
	<path class="st2" d="M23.68,29.69c0,0,13.35,0.33,14.02-0.73c0,0,0.94-3.77-7.99-10.56"/>
	<path class="st3" d="M22.31,29.81"/>
	<path class="st3" d="M22.38,29.42"/>
	<path class="st4" d="M43,28"/>
	<path class="st4" d="M37.82,28.99"/>
	<path class="st5" d="M39.58,21.42l-3.06,1.68c0,0,2.12,2.86,1.92,3.91c0,0,2.54,0.63,2.81,0.13
		C41.25,27.15,40.04,21.58,39.58,21.42z"/>
	<path class="st6" d="M39.08,20.63"/>
	<path class="st5" d="M30.58,17.71c0,0,1.03,0.55,1.16,0.73l2.85-1.64c0,0,0.22-0.54-1.42-0.26L30.58,17.71z"/>
	<path class="st5" d="M24.97,24.62c0,0-0.52,1.02-0.22,1.53c0.29,0.5,1.39,0.48,1.46,0.58l6.74-3.8c0,0-0.85-1.15-2.07-1.79
		L24.97,24.62z"/>
	<path class="st7" d="M27.29,30"/>
	<path class="st8" d="M28.29,19.1c0,0,0.69,0.11,0.95,0.73l-4.43,2.56C24.81,22.4,27.66,18.96,28.29,19.1z"/>
	<path class="st8" d="M36.39,17.99c0,0,1.92-0.18,1.75,1.82l-3.21,2l-2.08-1.95L36.39,17.99z"/>
	<path class="st8" d="M27.13,28.65l7.28-4.3c0,0,2.28,1.66,1.96,3.69c0,0-1.24,1.09-9.17,0.8"/>
	<path class="st9" d="M22.05,29.27"/>
	<path class="st9" d="M21.79,24.5c0,0-9.99-13.04-14.52-3.69c0,0-3.24,6.26,12.53,8.29"/>
	<path class="st1" d="M10.34,20.68c0.04,0.54-0.14,1-0.41,1.04c-0.27,0.04-0.52-0.37-0.57-0.91c-0.04-0.54,0.14-1,0.41-1.04
		C10.04,19.74,10.3,20.14,10.34,20.68z"/>
	<path class="st10" d="M13.8,22.68c-0.07,0.68-0.67,1.18-1.35,1.11c-0.68-0.06-1.18-0.67-1.11-1.36c0.07-0.68,0.67-1.18,1.35-1.11
		C13.37,21.4,13.86,22,13.8,22.68z"/>
	<path class="st11" d="M7.77,24.42c0.64,1.4,4.45,1.87,4.5-1.51"/>
	<path class="st9" d="M19.37,29.05c0,0,6.04,0.2,2.19-4.83"/>
	<path class="st2" d="M38.44,28.89c0,0,1.36,0.04,3.57-0.74"/>
</g>
</svg>
